<svg xmlns="http://www.w3.org/2000/svg" xmlns:xlink="http://www.w3.org/1999/xlink" viewBox="0 0 800 540" width="800" height="540" preserveAspectRatio="xMidYMid meet" style="width: 100%; height: 100%; transform: translate3d(0px, 0px, 0px); content-visibility: visible;"><defs><clipPath id="__lottie_element_176"><rect width="800" height="540" x="0" y="0"></rect></clipPath><linearGradient id="__lottie_element_189" spreadMethod="pad" gradientUnits="userSpaceOnUse" x1="-34" y1="-61" x2="44" y2="69"><stop offset="0%" stop-color="rgb(208,237,249)"></stop><stop offset="49%" stop-color="rgb(232,246,252)"></stop><stop offset="100%" stop-color="rgb(255,255,255)"></stop></linearGradient><linearGradient id="__lottie_element_214" spreadMethod="pad" gradientUnits="userSpaceOnUse" x1="-143" y1="-83" x2="141" y2="83"><stop offset="0%" stop-color="rgb(208,237,249)"></stop><stop offset="49%" stop-color="rgb(232,246,252)"></stop><stop offset="100%" stop-color="rgb(255,255,255)"></stop></linearGradient><clipPath id="__lottie_element_449"><path d="M0,0 L800,0 L800,540 L0,540z"></path></clipPath></defs><g clip-path="url(#__lottie_element_176)"><g clip-path="url(#__lottie_element_449)" transform="matrix(1,0,0,1,0,0)" opacity="1" style="display: block;"><g transform="matrix(0.20000000298023224,0,0,0.20000000298023224,451.97479248046875,209.9199981689453)" opacity="1" style="display: block;"><g opacity="1" transform="matrix(0,2.799999952316284,-2.799999952316284,0,0,0)"><path fill="rgb(35,66,149)" fill-opacity="1" d=" M18,14.105999946594238 C18,14.105999946594238 5.7838454246521,-7.052999973297119 5.7838454246521,-7.052999973297119 C5.7838454246521,-7.052999973297119 30.216154098510742,-7.052999973297119 30.216154098510742,-7.052999973297119 C30.216154098510742,-7.052999973297119 18,14.105999946594238 18,14.105999946594238z"></path></g></g></g><g transform="matrix(1,0,0,1,-1.5,337)" opacity="1" style="display: block;"><g opacity="1" transform="matrix(1,0,0,1,401.5,94)"><path stroke-linecap="round" stroke-linejoin="miter" fill-opacity="0" stroke-miterlimit="4" stroke="rgb(36,67,149)" stroke-opacity="1" stroke-width="4" d=" M0.5,90 C0.5,90 0.5,60 0.5,60 C0.5,43.430999755859375 -12.930999755859375,30 -29.5,30 C-29.5,30 -262,30 -262,30 C-278.5690002441406,30 -292,16.569000244140625 -292,0 C-292,-16.56800079345703 -278.5690002441406,-30 -262,-30 C-262,-30 367.5,-30 367.5,-30 C384.0690002441406,-30 397.5,-43.43199920654297 397.5,-60 C397.5,-76.56800079345703 384.0690002441406,-90 367.5,-90 C367.5,-90 -397.5,-90 -397.5,-90"></path></g></g><g transform="matrix(1,0,0,1,389,519)" opacity="1" style="display: block;"><g opacity="1" transform="matrix(1,0,0,1,11,11)"><path stroke-linecap="butt" stroke-linejoin="miter" fill-opacity="0" stroke-miterlimit="4" stroke="rgb(36,67,149)" stroke-opacity="1" stroke-width="4" d=" M0,-7 C3.865999937057495,-7 7,-3.865999937057495 7,0 C7,3.865999937057495 3.865999937057495,7 0,7 C-3.865999937057495,7 -7,3.865999937057495 -7,0 C-7,-3.865999937057495 -3.865999937057495,-7 0,-7z"></path></g></g><g transform="matrix(1,0,0,1,605,237)" opacity="1" style="display: block;"><g opacity="1" transform="matrix(1,0,0,1,57.75,54)"><path stroke-linecap="butt" stroke-linejoin="miter" fill-opacity="0" stroke-miterlimit="4" stroke="rgb(36,67,149)" stroke-opacity="1" stroke-width="4" d=" M27.25,24 C27.25,24 27.25,44 27.25,44 C27.25,47.31399917602539 24.56399917602539,50 21.25,50 C21.25,50 -47.75,50 -47.75,50 C-51.06399917602539,50 -53.75,47.31399917602539 -53.75,44 C-53.75,44 -53.75,-50 -53.75,-50 C-53.75,-50 27.25,-50 27.25,-50 C27.25,-50 27.25,-28 27.25,-28 M27.25,24 C27.25,24 37.75,24 37.75,24 C46.58700180053711,24 53.75,16.836999893188477 53.75,8 C53.75,8 53.75,-22 53.75,-22 C53.75,-25.31399917602539 51.06399917602539,-28 47.75,-28 C47.75,-28 27.25,-28 27.25,-28 M27.25,24 C27.25,24 27.25,-2 27.25,-2 C27.25,-2 27.25,-28 27.25,-28"></path></g></g><g transform="matrix(1,0,0,1,400,263)" opacity="1" style="display: block;"><g opacity="1" transform="matrix(1,0,0,1,-272.1830139160156,-9.515000343322754)"><path fill="url(#__lottie_element_189)" fill-opacity="0.9999995191680987" d=" M45.81700134277344,-69.4844970703125 C45.81700134277344,-69.4844970703125 45.81700134277344,69.4844970703125 45.81700134277344,69.4844970703125 C45.81700134277344,69.4844970703125 -45.81700134277344,69.4844970703125 -45.81700134277344,69.4844970703125 C-45.81700134277344,69.4844970703125 -45.81700134277344,-69.4844970703125 -45.81700134277344,-69.4844970703125 C-45.81700134277344,-69.4844970703125 45.81700134277344,-69.4844970703125 45.81700134277344,-69.4844970703125z"></path></g></g><g class="tablet-screen" transform="matrix(1,0,0,1,79.1719970703125,181.1719970703125)" opacity="1" style="display: block;"><g opacity="1" transform="matrix(1,0,0,1,48.827999114990234,72.3280029296875)"><path stroke-linecap="butt" stroke-linejoin="miter" fill-opacity="0" stroke-miterlimit="4" stroke="rgb(36,67,149)" stroke-opacity="1" stroke-width="4" d=" M-46,-69.5 C-46,-69.5 46,-69.5 46,-69.5 C46,-69.5 46,69.5 46,69.5 C46,69.5 -46,69.5 -46,69.5 C-46,69.5 -46,-69.5 -46,-69.5z"></path></g></g><g transform="matrix(1,0,0,1,68,169)" opacity="1" style="display: block;"><g opacity="1" transform="matrix(1,0,0,1,60.5,88)"><path stroke-linecap="butt" stroke-linejoin="miter" fill-opacity="0" stroke-miterlimit="4" stroke="rgb(36,67,149)" stroke-opacity="1" stroke-width="4" d=" M-50.5,-84 C-50.5,-84 50.5,-84 50.5,-84 C53.81399917602539,-84 56.5,-81.31400299072266 56.5,-78 C56.5,-78 56.5,78 56.5,78 C56.5,81.31400299072266 53.81399917602539,84 50.5,84 C50.5,84 -50.5,84 -50.5,84 C-53.81399917602539,84 -56.5,81.31400299072266 -56.5,78 C-56.5,78 -56.5,-78 -56.5,-78 C-56.5,-81.31400299072266 -53.81399917602539,-84 -50.5,-84z"></path></g></g><g transform="matrix(1,0,0,1,123.75,328.75)" opacity="1" style="display: block;"><g opacity="1" transform="matrix(1,0,0,1,3.75,3.75)"><path fill="rgb(36,67,149)" fill-opacity="0.9999902723349425" d=" M0,-3.5 C1.9329999685287476,-3.5 3.5,-1.9329999685287476 3.5,0 C3.5,1.9329999685287476 1.9329999685287476,3.5 0,3.5 C-1.9329999685287476,3.5 -3.5,1.9329999685287476 -3.5,0 C-3.5,-1.9329999685287476 -1.9329999685287476,-3.5 0,-3.5z"></path></g></g><g transform="matrix(1,0,0,1,81.75,64.75)" opacity="0.9999991452644952" style="display: block;"><g opacity="1" transform="matrix(1,0,0,1,122.25,26.25)"><path fill="rgb(251,185,36)" fill-opacity="1" d=" M-2,0 C-2,-1.1069999933242798 -1.1069999933242798,-2 0,-2 C1.093000054359436,-2 2,-1.1069999933242798 2,0 C2,1.1069999933242798 1.093000054359436,2 0,2 C-1.1069999933242798,2 -2,1.1069999933242798 -2,0z"></path></g><g opacity="1" transform="matrix(1,0,0,1,122.25,14.25)"><path fill="rgb(251,185,36)" fill-opacity="1" d=" M-2,0 C-2,-1.1069999933242798 -1.1069999933242798,-2 0,-2 C1.093000054359436,-2 2,-1.1069999933242798 2,0 C2,1.1069999933242798 1.093000054359436,2 0,2 C-1.1069999933242798,2 -2,1.1069999933242798 -2,0z"></path></g><g opacity="1" transform="matrix(1,0,0,1,122.25,2.25)"><path fill="rgb(251,185,36)" fill-opacity="1" d=" M-2,0 C-2,-1.1069999933242798 -1.1069999933242798,-2 0,-2 C1.093000054359436,-2 2,-1.1069999933242798 2,0 C2,1.1069999933242798 1.093000054359436,2 0,2 C-1.1069999933242798,2 -2,1.1069999933242798 -2,0z"></path></g><g opacity="1" transform="matrix(1,0,0,1,58.25,2.25)"><path fill="rgb(251,185,36)" fill-opacity="1" d=" M-2,0 C-2,-1.1069999933242798 -1.1069999933242798,-2 0,-2 C1.093000054359436,-2 2,-1.1069999933242798 2,0 C2,1.1069999933242798 1.093000054359436,2 0,2 C-1.1069999933242798,2 -2,1.1069999933242798 -2,0z"></path></g><g opacity="1" transform="matrix(1,0,0,1,114.25,26.25)"><path fill="rgb(251,185,36)" fill-opacity="1" d=" M-2,0 C-2,-1.1069999933242798 -1.1069999933242798,-2 0,-2 C1.093000054359436,-2 2,-1.1069999933242798 2,0 C2,1.1069999933242798 1.093000054359436,2 0,2 C-1.1069999933242798,2 -2,1.1069999933242798 -2,0z"></path></g><g opacity="1" transform="matrix(1,0,0,1,114.25,14.25)"><path fill="rgb(251,185,36)" fill-opacity="1" d=" M-2,0 C-2,-1.1069999933242798 -1.1069999933242798,-2 0,-2 C1.093000054359436,-2 2,-1.1069999933242798 2,0 C2,1.1069999933242798 1.093000054359436,2 0,2 C-1.1069999933242798,2 -2,1.1069999933242798 -2,0z"></path></g><g opacity="1" transform="matrix(1,0,0,1,114.25,2.25)"><path fill="rgb(251,185,36)" fill-opacity="1" d=" M-2,0 C-2,-1.1069999933242798 -1.1069999933242798,-2 0,-2 C1.093000054359436,-2 2,-1.1069999933242798 2,0 C2,1.1069999933242798 1.093000054359436,2 0,2 C-1.1069999933242798,2 -2,1.1069999933242798 -2,0z"></path></g><g opacity="1" transform="matrix(1,0,0,1,50.25,2.25)"><path fill="rgb(251,185,36)" fill-opacity="1" d=" M-2,0 C-2,-1.1069999933242798 -1.1069999933242798,-2 0,-2 C1.093000054359436,-2 2,-1.1069999933242798 2,0 C2,1.1069999933242798 1.093000054359436,2 0,2 C-1.1069999933242798,2 -2,1.1069999933242798 -2,0z"></path></g><g opacity="1" transform="matrix(1,0,0,1,106.25,26.25)"><path fill="rgb(251,185,36)" fill-opacity="1" d=" M-2,0 C-2,-1.1069999933242798 -1.1069999933242798,-2 0,-2 C1.093000054359436,-2 2,-1.1069999933242798 2,0 C2,1.1069999933242798 1.093000054359436,2 0,2 C-1.1069999933242798,2 -2,1.1069999933242798 -2,0z"></path></g><g opacity="1" transform="matrix(1,0,0,1,106.25,14.25)"><path fill="rgb(251,185,36)" fill-opacity="1" d=" M-2,0 C-2,-1.1069999933242798 -1.1069999933242798,-2 0,-2 C1.093000054359436,-2 2,-1.1069999933242798 2,0 C2,1.1069999933242798 1.093000054359436,2 0,2 C-1.1069999933242798,2 -2,1.1069999933242798 -2,0z"></path></g><g opacity="1" transform="matrix(1,0,0,1,106.25,2.25)"><path fill="rgb(251,185,36)" fill-opacity="1" d=" M-2,0 C-2,-1.1069999933242798 -1.1069999933242798,-2 0,-2 C1.093000054359436,-2 2,-1.1069999933242798 2,0 C2,1.1069999933242798 1.093000054359436,2 0,2 C-1.1069999933242798,2 -2,1.1069999933242798 -2,0z"></path></g><g opacity="1" transform="matrix(1,0,0,1,42.25,2.25)"><path fill="rgb(251,185,36)" fill-opacity="1" d=" M-2,0 C-2,-1.1069999933242798 -1.1069999933242798,-2 0,-2 C1.093000054359436,-2 2,-1.1069999933242798 2,0 C2,1.1069999933242798 1.093000054359436,2 0,2 C-1.1069999933242798,2 -2,1.1069999933242798 -2,0z"></path></g><g opacity="1" transform="matrix(1,0,0,1,98.25,26.25)"><path fill="rgb(251,185,36)" fill-opacity="1" d=" M-2,0 C-2,-1.1069999933242798 -1.1069999933242798,-2 0,-2 C1.093000054359436,-2 2,-1.1069999933242798 2,0 C2,1.1069999933242798 1.093000054359436,2 0,2 C-1.1069999933242798,2 -2,1.1069999933242798 -2,0z"></path></g><g opacity="1" transform="matrix(1,0,0,1,98.25,14.25)"><path fill="rgb(251,185,36)" fill-opacity="1" d=" M-2,0 C-2,-1.1069999933242798 -1.1069999933242798,-2 0,-2 C1.093000054359436,-2 2,-1.1069999933242798 2,0 C2,1.1069999933242798 1.093000054359436,2 0,2 C-1.1069999933242798,2 -2,1.1069999933242798 -2,0z"></path></g><g opacity="1" transform="matrix(1,0,0,1,98.25,2.25)"><path fill="rgb(251,185,36)" fill-opacity="1" d=" M-2,0 C-2,-1.1069999933242798 -1.1069999933242798,-2 0,-2 C1.093000054359436,-2 2,-1.1069999933242798 2,0 C2,1.1069999933242798 1.093000054359436,2 0,2 C-1.1069999933242798,2 -2,1.1069999933242798 -2,0z"></path></g><g opacity="1" transform="matrix(1,0,0,1,34.25,2.25)"><path fill="rgb(251,185,36)" fill-opacity="1" d=" M-2,0 C-2,-1.1069999933242798 -1.1069999933242798,-2 0,-2 C1.093000054359436,-2 2,-1.1069999933242798 2,0 C2,1.1069999933242798 1.093000054359436,2 0,2 C-1.1069999933242798,2 -2,1.1069999933242798 -2,0z"></path></g><g opacity="1" transform="matrix(1,0,0,1,90.25,26.25)"><path fill="rgb(251,185,36)" fill-opacity="1" d=" M-2,0 C-2,-1.1069999933242798 -1.1069999933242798,-2 0,-2 C1.093000054359436,-2 2,-1.1069999933242798 2,0 C2,1.1069999933242798 1.093000054359436,2 0,2 C-1.1069999933242798,2 -2,1.1069999933242798 -2,0z"></path></g><g opacity="1" transform="matrix(1,0,0,1,90.25,14.25)"><path fill="rgb(251,185,36)" fill-opacity="1" d=" M-2,0 C-2,-1.1069999933242798 -1.1069999933242798,-2 0,-2 C1.093000054359436,-2 2,-1.1069999933242798 2,0 C2,1.1069999933242798 1.093000054359436,2 0,2 C-1.1069999933242798,2 -2,1.1069999933242798 -2,0z"></path></g><g opacity="1" transform="matrix(1,0,0,1,58.25,14.25)"><path fill="rgb(251,185,36)" fill-opacity="1" d=" M-2,0 C-2,-1.1069999933242798 -1.1069999933242798,-2 0,-2 C1.093000054359436,-2 2,-1.1069999933242798 2,0 C2,1.1069999933242798 1.093000054359436,2 0,2 C-1.1069999933242798,2 -2,1.1069999933242798 -2,0z"></path></g><g opacity="1" transform="matrix(1,0,0,1,90.25,2.25)"><path fill="rgb(251,185,36)" fill-opacity="1" d=" M-2,0 C-2,-1.1069999933242798 -1.1069999933242798,-2 0,-2 C1.093000054359436,-2 2,-1.1069999933242798 2,0 C2,1.1069999933242798 1.093000054359436,2 0,2 C-1.1069999933242798,2 -2,1.1069999933242798 -2,0z"></path></g><g opacity="1" transform="matrix(1,0,0,1,26.25,2.25)"><path fill="rgb(251,185,36)" fill-opacity="1" d=" M-2,0 C-2,-1.1069999933242798 -1.1069999933242798,-2 0,-2 C1.093000054359436,-2 2,-1.1069999933242798 2,0 C2,1.1069999933242798 1.093000054359436,2 0,2 C-1.1069999933242798,2 -2,1.1069999933242798 -2,0z"></path></g><g opacity="1" transform="matrix(1,0,0,1,82.25,26.25)"><path fill="rgb(251,185,36)" fill-opacity="1" d=" M-2,0 C-2,-1.1069999933242798 -1.1069999933242798,-2 0,-2 C1.093000054359436,-2 2,-1.1069999933242798 2,0 C2,1.1069999933242798 1.093000054359436,2 0,2 C-1.1069999933242798,2 -2,1.1069999933242798 -2,0z"></path></g><g opacity="1" transform="matrix(1,0,0,1,82.25,14.25)"><path fill="rgb(251,185,36)" fill-opacity="1" d=" M-2,0 C-2,-1.1069999933242798 -1.1069999933242798,-2 0,-2 C1.093000054359436,-2 2,-1.1069999933242798 2,0 C2,1.1069999933242798 1.093000054359436,2 0,2 C-1.1069999933242798,2 -2,1.1069999933242798 -2,0z"></path></g><g opacity="1" transform="matrix(1,0,0,1,50.25,14.25)"><path fill="rgb(251,185,36)" fill-opacity="1" d=" M-2,0 C-2,-1.1069999933242798 -1.1069999933242798,-2 0,-2 C1.093000054359436,-2 2,-1.1069999933242798 2,0 C2,1.1069999933242798 1.093000054359436,2 0,2 C-1.1069999933242798,2 -2,1.1069999933242798 -2,0z"></path></g><g opacity="1" transform="matrix(1,0,0,1,82.25,2.25)"><path fill="rgb(251,185,36)" fill-opacity="1" d=" M-2,0 C-2,-1.1069999933242798 -1.1069999933242798,-2 0,-2 C1.093000054359436,-2 2,-1.1069999933242798 2,0 C2,1.1069999933242798 1.093000054359436,2 0,2 C-1.1069999933242798,2 -2,1.1069999933242798 -2,0z"></path></g><g opacity="1" transform="matrix(1,0,0,1,18.25,2.25)"><path fill="rgb(251,185,36)" fill-opacity="1" d=" M-2,0 C-2,-1.1069999933242798 -1.1069999933242798,-2 0,-2 C1.093000054359436,-2 2,-1.1069999933242798 2,0 C2,1.1069999933242798 1.093000054359436,2 0,2 C-1.1069999933242798,2 -2,1.1069999933242798 -2,0z"></path></g><g opacity="1" transform="matrix(1,0,0,1,74.25,26.25)"><path fill="rgb(251,185,36)" fill-opacity="1" d=" M-2,0 C-2,-1.1069999933242798 -1.1069999933242798,-2 0,-2 C1.093000054359436,-2 2,-1.1069999933242798 2,0 C2,1.1069999933242798 1.093000054359436,2 0,2 C-1.1069999933242798,2 -2,1.1069999933242798 -2,0z"></path></g><g opacity="1" transform="matrix(1,0,0,1,74.25,14.25)"><path fill="rgb(251,185,36)" fill-opacity="1" d=" M-2,0 C-2,-1.1069999933242798 -1.1069999933242798,-2 0,-2 C1.093000054359436,-2 2,-1.1069999933242798 2,0 C2,1.1069999933242798 1.093000054359436,2 0,2 C-1.1069999933242798,2 -2,1.1069999933242798 -2,0z"></path></g><g opacity="1" transform="matrix(1,0,0,1,42.25,14.25)"><path fill="rgb(251,185,36)" fill-opacity="1" d=" M-2,0 C-2,-1.1069999933242798 -1.1069999933242798,-2 0,-2 C1.093000054359436,-2 2,-1.1069999933242798 2,0 C2,1.1069999933242798 1.093000054359436,2 0,2 C-1.1069999933242798,2 -2,1.1069999933242798 -2,0z"></path></g><g opacity="1" transform="matrix(1,0,0,1,74.25,2.25)"><path fill="rgb(251,185,36)" fill-opacity="1" d=" M-2,0 C-2,-1.1069999933242798 -1.1069999933242798,-2 0,-2 C1.093000054359436,-2 2,-1.1069999933242798 2,0 C2,1.1069999933242798 1.093000054359436,2 0,2 C-1.1069999933242798,2 -2,1.1069999933242798 -2,0z"></path></g><g opacity="1" transform="matrix(1,0,0,1,10.25,2.25)"><path fill="rgb(251,185,36)" fill-opacity="1" d=" M-2,0 C-2,-1.1069999933242798 -1.1069999933242798,-2 0,-2 C1.093000054359436,-2 2,-1.1069999933242798 2,0 C2,1.1069999933242798 1.093000054359436,2 0,2 C-1.1069999933242798,2 -2,1.1069999933242798 -2,0z"></path></g><g opacity="1" transform="matrix(1,0,0,1,66.25,26.25)"><path fill="rgb(251,185,36)" fill-opacity="1" d=" M-2,0 C-2,-1.1069999933242798 -1.1069999933242798,-2 0,-2 C1.093000054359436,-2 2,-1.1069999933242798 2,0 C2,1.1069999933242798 1.093000054359436,2 0,2 C-1.1069999933242798,2 -2,1.1069999933242798 -2,0z"></path></g><g opacity="1" transform="matrix(1,0,0,1,66.25,14.25)"><path fill="rgb(251,185,36)" fill-opacity="1" d=" M-2,0 C-2,-1.1069999933242798 -1.1069999933242798,-2 0,-2 C1.093000054359436,-2 2,-1.1069999933242798 2,0 C2,1.1069999933242798 1.093000054359436,2 0,2 C-1.1069999933242798,2 -2,1.1069999933242798 -2,0z"></path></g><g opacity="1" transform="matrix(1,0,0,1,34.25,14.25)"><path fill="rgb(251,185,36)" fill-opacity="1" d=" M-2,0 C-2,-1.1069999933242798 -1.1069999933242798,-2 0,-2 C1.093000054359436,-2 2,-1.1069999933242798 2,0 C2,1.1069999933242798 1.093000054359436,2 0,2 C-1.1069999933242798,2 -2,1.1069999933242798 -2,0z"></path></g><g opacity="1" transform="matrix(1,0,0,1,66.25,2.25)"><path fill="rgb(251,185,36)" fill-opacity="1" d=" M-2,0 C-2,-1.1069999933242798 -1.1069999933242798,-2 0,-2 C1.093000054359436,-2 2,-1.1069999933242798 2,0 C2,1.1069999933242798 1.093000054359436,2 0,2 C-1.1069999933242798,2 -2,1.1069999933242798 -2,0z"></path></g><g opacity="1" transform="matrix(1,0,0,1,2.25,2.25)"><path fill="rgb(251,185,36)" fill-opacity="1" d=" M-2,0 C-2,-1.1069999933242798 -1.1069999933242798,-2 0,-2 C1.093000054359436,-2 2,-1.1069999933242798 2,0 C2,1.1069999933242798 1.093000054359436,2 0,2 C-1.1069999933242798,2 -2,1.1069999933242798 -2,0z"></path></g></g><g transform="matrix(1,0,0,1,608.75,197.75)" opacity="0.9999989182739539" style="display: block;"><g opacity="1" transform="matrix(1,0,0,1,42.25,26.25)"><path fill="rgb(36,67,149)" fill-opacity="1" d=" M-2,0 C-2,-1.1069999933242798 -1.1069999933242798,-2 0,-2 C1.093000054359436,-2 2,-1.1069999933242798 2,0 C2,1.1069999933242798 1.093000054359436,2 0,2 C-1.1069999933242798,2 -2,1.1069999933242798 -2,0z"></path></g><g opacity="1" transform="matrix(1,0,0,1,58.25,26.25)"><path fill="rgb(36,67,149)" fill-opacity="1" d=" M-2,0 C-2,-1.1069999933242798 -1.1069999933242798,-2 0,-2 C1.093000054359436,-2 2,-1.1069999933242798 2,0 C2,1.1069999933242798 1.093000054359436,2 0,2 C-1.1069999933242798,2 -2,1.1069999933242798 -2,0z"></path></g><g opacity="1" transform="matrix(1,0,0,1,42.25,14.25)"><path fill="rgb(36,67,149)" fill-opacity="1" d=" M-2,0 C-2,-1.1069999933242798 -1.1069999933242798,-2 0,-2 C1.093000054359436,-2 2,-1.1069999933242798 2,0 C2,1.1069999933242798 1.093000054359436,2 0,2 C-1.1069999933242798,2 -2,1.1069999933242798 -2,0z"></path></g><g opacity="1" transform="matrix(1,0,0,1,34.25,26.25)"><path fill="rgb(36,67,149)" fill-opacity="1" d=" M-2,0 C-2,-1.1069999933242798 -1.1069999933242798,-2 0,-2 C1.093000054359436,-2 2,-1.1069999933242798 2,0 C2,1.1069999933242798 1.093000054359436,2 0,2 C-1.1069999933242798,2 -2,1.1069999933242798 -2,0z"></path></g><g opacity="1" transform="matrix(1,0,0,1,50.25,26.25)"><path fill="rgb(36,67,149)" fill-opacity="1" d=" M-2,0 C-2,-1.1069999933242798 -1.1069999933242798,-2 0,-2 C1.093000054359436,-2 2,-1.1069999933242798 2,0 C2,1.1069999933242798 1.093000054359436,2 0,2 C-1.1069999933242798,2 -2,1.1069999933242798 -2,0z"></path></g><g opacity="1" transform="matrix(1,0,0,1,34.25,14.25)"><path fill="rgb(36,67,149)" fill-opacity="1" d=" M-2,0 C-2,-1.1069999933242798 -1.1069999933242798,-2 0,-2 C1.093000054359436,-2 2,-1.1069999933242798 2,0 C2,1.1069999933242798 1.093000054359436,2 0,2 C-1.1069999933242798,2 -2,1.1069999933242798 -2,0z"></path></g><g opacity="1" transform="matrix(1,0,0,1,26.25,26.25)"><path fill="rgb(36,67,149)" fill-opacity="1" d=" M-2,0 C-2,-1.1069999933242798 -1.1069999933242798,-2 0,-2 C1.093000054359436,-2 2,-1.1069999933242798 2,0 C2,1.1069999933242798 1.093000054359436,2 0,2 C-1.1069999933242798,2 -2,1.1069999933242798 -2,0z"></path></g><g opacity="1" transform="matrix(1,0,0,1,26.25,14.25)"><path fill="rgb(36,67,149)" fill-opacity="1" d=" M-2,0 C-2,-1.1069999933242798 -1.1069999933242798,-2 0,-2 C1.093000054359436,-2 2,-1.1069999933242798 2,0 C2,1.1069999933242798 1.093000054359436,2 0,2 C-1.1069999933242798,2 -2,1.1069999933242798 -2,0z"></path></g><g opacity="1" transform="matrix(1,0,0,1,26.25,2.25)"><path fill="rgb(36,67,149)" fill-opacity="1" d=" M-2,0 C-2,-1.1069999933242798 -1.1069999933242798,-2 0,-2 C1.093000054359436,-2 2,-1.1069999933242798 2,0 C2,1.1069999933242798 1.093000054359436,2 0,2 C-1.1069999933242798,2 -2,1.1069999933242798 -2,0z"></path></g><g opacity="1" transform="matrix(1,0,0,1,18.25,26.25)"><path fill="rgb(36,67,149)" fill-opacity="1" d=" M-2,0 C-2,-1.1069999933242798 -1.1069999933242798,-2 0,-2 C1.093000054359436,-2 2,-1.1069999933242798 2,0 C2,1.1069999933242798 1.093000054359436,2 0,2 C-1.1069999933242798,2 -2,1.1069999933242798 -2,0z"></path></g><g opacity="1" transform="matrix(1,0,0,1,18.25,14.25)"><path fill="rgb(36,67,149)" fill-opacity="1" d=" M-2,0 C-2,-1.1069999933242798 -1.1069999933242798,-2 0,-2 C1.093000054359436,-2 2,-1.1069999933242798 2,0 C2,1.1069999933242798 1.093000054359436,2 0,2 C-1.1069999933242798,2 -2,1.1069999933242798 -2,0z"></path></g><g opacity="1" transform="matrix(1,0,0,1,18.25,2.25)"><path fill="rgb(36,67,149)" fill-opacity="1" d=" M-2,0 C-2,-1.1069999933242798 -1.1069999933242798,-2 0,-2 C1.093000054359436,-2 2,-1.1069999933242798 2,0 C2,1.1069999933242798 1.093000054359436,2 0,2 C-1.1069999933242798,2 -2,1.1069999933242798 -2,0z"></path></g><g opacity="1" transform="matrix(1,0,0,1,10.25,26.25)"><path fill="rgb(36,67,149)" fill-opacity="1" d=" M-2,0 C-2,-1.1069999933242798 -1.1069999933242798,-2 0,-2 C1.093000054359436,-2 2,-1.1069999933242798 2,0 C2,1.1069999933242798 1.093000054359436,2 0,2 C-1.1069999933242798,2 -2,1.1069999933242798 -2,0z"></path></g><g opacity="1" transform="matrix(1,0,0,1,10.25,14.25)"><path fill="rgb(36,67,149)" fill-opacity="1" d=" M-2,0 C-2,-1.1069999933242798 -1.1069999933242798,-2 0,-2 C1.093000054359436,-2 2,-1.1069999933242798 2,0 C2,1.1069999933242798 1.093000054359436,2 0,2 C-1.1069999933242798,2 -2,1.1069999933242798 -2,0z"></path></g><g opacity="1" transform="matrix(1,0,0,1,10.25,2.25)"><path fill="rgb(36,67,149)" fill-opacity="1" d=" M-2,0 C-2,-1.1069999933242798 -1.1069999933242798,-2 0,-2 C1.093000054359436,-2 2,-1.1069999933242798 2,0 C2,1.1069999933242798 1.093000054359436,2 0,2 C-1.1069999933242798,2 -2,1.1069999933242798 -2,0z"></path></g><g opacity="1" transform="matrix(1,0,0,1,2.25,26.25)"><path fill="rgb(36,67,149)" fill-opacity="1" d=" M-2,0 C-2,-1.1069999933242798 -1.1069999933242798,-2 0,-2 C1.093000054359436,-2 2,-1.1069999933242798 2,0 C2,1.1069999933242798 1.093000054359436,2 0,2 C-1.1069999933242798,2 -2,1.1069999933242798 -2,0z"></path></g><g opacity="1" transform="matrix(1,0,0,1,2.25,14.25)"><path fill="rgb(36,67,149)" fill-opacity="1" d=" M-2,0 C-2,-1.1069999933242798 -1.1069999933242798,-2 0,-2 C1.093000054359436,-2 2,-1.1069999933242798 2,0 C2,1.1069999933242798 1.093000054359436,2 0,2 C-1.1069999933242798,2 -2,1.1069999933242798 -2,0z"></path></g><g opacity="1" transform="matrix(1,0,0,1,2.25,2.25)"><path fill="rgb(36,67,149)" fill-opacity="1" d=" M-2,0 C-2,-1.1069999933242798 -1.1069999933242798,-2 0,-2 C1.093000054359436,-2 2,-1.1069999933242798 2,0 C2,1.1069999933242798 1.093000054359436,2 0,2 C-1.1069999933242798,2 -2,1.1069999933242798 -2,0z"></path></g></g><g transform="matrix(1,0,0,1,233,-1)" opacity="1" style="display: block;"><g opacity="1" transform="matrix(1,0,0,1,168,173)"><path stroke-linecap="butt" stroke-linejoin="miter" fill-opacity="0" stroke-miterlimit="4" stroke="rgb(36,67,149)" stroke-opacity="1" stroke-width="4" d=" M-164,97 C-164,97 -164,118 -164,118 C-164,121.31400299072266 -161.31399536132812,124 -158,124 C-158,124 -32,124 -32,124 M-164,97 C-164,97 -164,-104 -164,-104 C-164,-107.31400299072266 -161.31399536132812,-110 -158,-110 C-158,-110 -22,-110 -22,-110 M-164,97 C-164,97 164,97 164,97 M164,97 C164,97 164,-104 164,-104 C164,-107.31400299072266 161.31399536132812,-110 158,-110 C158,-110 22,-110 22,-110 M164,97 C164,97 164,118 164,118 C164,121.31400299072266 161.31399536132812,124 158,124 C158,124 32,124 32,124 M-32,124 C-32,124 0,124 0,124 C0,124 32,124 32,124 M-32,124 C-32,124 -42,154 -42,154 M32,124 C32,124 42,154 42,154 M-42,154 C-42,154 -61,154 -61,154 C-62.65700149536133,154 -64,155.34300231933594 -64,157 C-64,157 -64,169 -64,169 C-64,169 64,169 64,169 C64,169 64,157 64,157 C64,155.34300231933594 62.65700149536133,154 61,154 C61,154 42,154 42,154 M-42,154 C-42,154 42,154 42,154 M-22,-110 C-22,-110 0,-110 0,-110 C0,-110 22,-110 22,-110 M-22,-110 C-22,-110 -16,-122 -16,-122 M22,-110 C22,-110 16,-122 16,-122 M-16,-122 C-16,-122 16,-122 16,-122 M-16,-122 C-16,-122 -26,-122 -26,-122 C-29.31399917602539,-122 -32,-124.68599700927734 -32,-128 C-32,-128 -32,-163 -32,-163 C-32,-166.31399536132812 -29.31399917602539,-169 -26,-169 C-26,-169 26,-169 26,-169 C29.31399917602539,-169 32,-166.31399536132812 32,-163 C32,-163 32,-128 32,-128 C32,-124.68599700927734 29.31399917602539,-122 26,-122 C26,-122 16,-122 16,-122"></path></g></g><g transform="matrix(1,0,0,1,374.1719970703125,8.172000885009766)" opacity="1" style="display: block;"><g opacity="1" transform="matrix(1,0,0,1,26.827999114990234,18.327999114990234)"><path stroke-linecap="butt" stroke-linejoin="miter" fill-opacity="0" stroke-miterlimit="4" stroke="rgb(36,67,149)" stroke-opacity="1" stroke-width="4" d=" M-24,-15.5 C-24,-15.5 24,-15.5 24,-15.5 C24,-15.5 24,15.5 24,15.5 C24,15.5 -24,15.5 -24,15.5 C-24,15.5 -24,-15.5 -24,-15.5z"></path></g></g><g transform="matrix(1,0,0,1,400,262)" opacity="1" style="display: block;"><g opacity="1" transform="matrix(1,0,0,1,1.0839999914169312,-96.9219970703125)"><path fill="url(#__lottie_element_214)" fill-opacity="0.9999995191680987" d=" M154.08450317382812,-94.57749938964844 C154.08450317382812,-94.57749938964844 154.08450317382812,94.57749938964844 154.08450317382812,94.57749938964844 C154.08450317382812,94.57749938964844 -154.08450317382812,94.57749938964844 -154.08450317382812,94.57749938964844 C-154.08450317382812,94.57749938964844 -154.08450317382812,-94.57749938964844 -154.08450317382812,-94.57749938964844 C-154.08450317382812,-94.57749938964844 154.08450317382812,-94.57749938964844 154.08450317382812,-94.57749938964844z"></path></g></g><g transform="matrix(1,0,0,1,244.1719970703125,68.1719970703125)" opacity="1" style="display: block;"><g opacity="1" transform="matrix(1,0,0,1,156.8280029296875,97.3280029296875)"><path stroke-linecap="butt" stroke-linejoin="miter" fill-opacity="0" stroke-miterlimit="4" stroke="rgb(36,67,149)" stroke-opacity="1" stroke-width="4" d=" M-154,-94.5 C-154,-94.5 154,-94.5 154,-94.5 C154,-94.5 154,94.5 154,94.5 C154,94.5 -154,94.5 -154,94.5 C-154,94.5 -154,-94.5 -154,-94.5z"></path></g></g><g transform="matrix(1,0,0,1,397.75,278.75)" opacity="1" style="display: block;"><g opacity="1" transform="matrix(1,0,0,1,3.75,3.75)"><path fill="rgb(36,67,149)" fill-opacity="0.9999923129073799" d=" M0,-3.5 C1.9329999685287476,-3.5 3.5,-1.9329999685287476 3.5,0 C3.5,1.9329999685287476 1.9329999685287476,3.5 0,3.5 C-1.9329999685287476,3.5 -3.5,1.9329999685287476 -3.5,0 C-3.5,-1.9329999685287476 -1.9329999685287476,-3.5 0,-3.5z"></path></g></g><g transform="matrix(1,0,0,1,394.75,20.75)" opacity="1" style="display: block;"><g opacity="1" transform="matrix(1,0,0,1,6.25,6.25)"><path fill="rgb(36,67,149)" fill-opacity="0.9999923129073799" d=" M0,-6 C3.313999891281128,-6 6,-3.313999891281128 6,0 C6,3.313999891281128 3.313999891281128,6 0,6 C-3.313999891281128,6 -6,3.313999891281128 -6,0 C-6,-3.313999891281128 -3.313999891281128,-6 0,-6z"></path></g></g></g></svg>