<svg xmlns="http://www.w3.org/2000/svg" width="60" height="59" viewBox="0 0 60 59"><g transform="translate(19 16)"><ellipse cx="30" cy="29.5" rx="30" ry="29.5" transform="translate(-19 -16)" fill="#ffebe6"/><path d="M25.83,32.04H23.922V29.178a4.776,4.776,0,0,0-4.77-4.77H13.428a4.776,4.776,0,0,0-4.77,4.77V32.04H6.75V29.178A6.686,6.686,0,0,1,13.428,22.5h5.724a6.686,6.686,0,0,1,6.678,6.678Z" transform="translate(-4.842 -5.328)" fill="#f37225"/><path d="M5.454,6.75A.954.954,0,0,0,4.5,7.7V16.29H6.408V7.7A.954.954,0,0,0,5.454,6.75Z" transform="translate(-4.5 -2.934)" fill="#f37225"/><path d="M4.5,2.25V4.158H9.27v6.678a6.678,6.678,0,1,0,13.356,0V4.158H27.4V2.25Zm6.678,1.908h9.54V7.02h-9.54Zm4.77,11.448a4.77,4.77,0,0,1-4.77-4.77V8.928h9.54v1.908A4.77,4.77,0,0,1,15.948,15.606Z" transform="translate(-4.5 -2.25)" fill="#f37225"/></g></svg>